<svg id="SvgjsSvg1035" width="288" height="288" xmlns="http://www.w3.org/2000/svg" version="1.1" xmlns:xlink="http://www.w3.org/1999/xlink" xmlns:svgjs="http://svgjs.com/svgjs"><circle id="SvgjsCircle1042" r="144" cx="144" cy="144" transform="matrix(0.9999999999999999,0,0,0.9999999999999999,2.842170943040401e-14,2.842170943040401e-14)" fill="#ffffff"></circle><defs id="SvgjsDefs1036"></defs><g id="SvgjsG1037" transform="matrix(0.73,0,0,0.73,38.879999999999995,38.879999999999995)"><svg xmlns="http://www.w3.org/2000/svg" viewBox="0 0 24 24" width="288" height="288"><path fill="none" d="M0 0h24v24H0V0z"></path><path d="M19.23 15.26l-2.54-.29c-.61-.07-1.21.14-1.64.57l-1.84 1.84c-2.83-1.44-5.15-3.75-6.59-6.59l1.85-1.85c.43-.43.64-1.03.57-1.64l-.29-2.52c-.12-1.01-.97-1.77-1.99-1.77H5.03c-1.13 0-2.07.94-2 2.07.53 8.54 7.36 15.36 15.89 15.89 1.13.07 2.07-.87 2.07-2v-1.73c.01-1.01-.75-1.86-1.76-1.98z" fill="#007aff" class="color000 svgShape"></path></svg></g></svg>