<svg id="SvgjsSvg1013" width="288" height="288" xmlns="http://www.w3.org/2000/svg" version="1.1" xmlns:xlink="http://www.w3.org/1999/xlink" xmlns:svgjs="http://svgjs.com/svgjs"><circle id="SvgjsCircle1021" r="144" cx="144" cy="144" transform="matrix(0.9999999999999999,0,0,0.9999999999999999,2.842170943040401e-14,2.842170943040401e-14)" fill="#f9f9f9"></circle><defs id="SvgjsDefs1014"></defs><g id="SvgjsG1015" transform="matrix(0.63,0,0,0.63,53.28,53.28)"><svg xmlns="http://www.w3.org/2000/svg" enable-background="new 0 0 24 24" viewBox="0 0 24 24" width="288" height="288"><path fill="#ff9800" d="M6.444 14.839l10.338 2.196.433-2.089-10.338-2.212zM6.215 17.571h10.566v2.127h-10.566zM7.8 9.831l9.572 4.526.887-1.944-9.577-4.538zM17.373 14.358l-.001-.001-.001.001z" class="colorff9800 svgShape"></path><path fill="#757575" d="m2 15.429v8.571h18.992v-8.571h-2.113v6.428h-14.766v-6.428z" class="color757575 svgShape"></path><path fill="#ff9800" d="M10.453 5.063l8.109 6.873 1.346-1.65-8.109-6.873zM22 8.587l-6.302-8.587-1.691 1.286 6.302 8.587z" class="colorff9800 svgShape"></path></svg></g></svg>